# xmcd CD database file generated by OrangeCD 5.2
#
# Track frame offsets:
#	150
#	14090
#	27430
#	43432
#	53577
#	64430
#	77802
#	90410
#	101922
#	113747
#	125425
#	138550
#	150130
#	158060
#	168015
#
# Disc length: 2377 seconds
#
# Revision: 1
# Processed by: cddbd v1.5.1PL0 Copyright (c) Steve Scherf et al.
# Submitted via: OrangeCD 5.2
#
DISCID=c109470f
DTITLE=Shotgun - A Shot Of Rebel Rockabilly
DYEAR=2002
DGENRE=Rockabilly
TTITLE0=Bop-A-Lena
TTITLE1=Rockin' Rollin' Stone
TTITLE2=Quit Yer Foolin' Me
TTITLE3=Ring-a-Ding-a-Ling
TTITLE4=Dig Them Squeaky Shoes
TTITLE5=Lonely Man
TTITLE6=The Rebel Song
TTITLE7=Hometown Rockin'
TTITLE8=Party Party
TTITLE9=Keep On Wild And Rockin'
TTITLE10=Doin' Things Right
TTITLE11=Rockabilly Dad
TTITLE12=Nervous Baby
TTITLE13=We're Gonna Boogie
TTITLE14=Swashbuckle
EXTD=
EXTT0=
EXTT1=
EXTT2=
EXTT3=
EXTT4=
EXTT5=
EXTT6=
EXTT7=
EXTT8=
EXTT9=
EXTT10=
EXTT11=
EXTT12=
EXTT13=
EXTT14=
PLAYORDER=
